<?xml version="1.0" standalone="no"?>
<!DOCTYPE svg PUBLIC "-//W3C//DTD SVG 20010904//EN"
 "http://www.w3.org/TR/2001/REC-SVG-20010904/DTD/svg10.dtd">
<svg version="1.0" xmlns="http://www.w3.org/2000/svg"
 width="500.000000pt" height="500.000000pt" viewBox="0 0 500.000000 500.000000"
 preserveAspectRatio="xMidYMid meet">
<metadata>
Created by potrace 1.14, written by Peter Selinger 2001-2017
</metadata>
<g transform="translate(0.000000,500.000000) scale(0.100000,-0.100000)"
fill="#000000" stroke="none">
<path d="M0 2500 l0 -2500 2500 0 2500 0 0 2500 0 2500 -2500 0 -2500 0 0
-2500z m1833 668 l447 -673 0 603 c0 544 -2 607 -17 639 -24 50 -77 73 -175
73 -63 0 -78 3 -78 15 0 13 39 15 290 15 242 0 290 -2 290 -14 0 -11 -22 -15
-94 -18 -77 -2 -100 -7 -123 -24 -60 -45 -58 -5 -61 -876 l-2 -798 -49 0 -49
0 -518 782 -519 782 -3 -712 c-2 -804 -6 -768 70 -802 31 -14 65 -20 126 -20
66 0 82 -3 82 -15 0 -13 -40 -15 -296 -15 -232 0 -295 3 -292 13 3 8 34 14 89
17 51 4 97 13 116 23 66 35 63 0 63 811 0 429 -4 745 -9 759 -19 49 -67 71
-165 77 -59 3 -91 9 -94 18 -3 9 54 12 260 12 l263 0 448 -672z m2061 -115 c3
-71 9 -208 12 -305 l6 -178 -96 0 c-85 0 -96 2 -96 18 0 9 -4 67 -10 128 -18
218 -66 264 -282 264 l-98 0 2 -741 c3 -863 -13 -769 135 -769 l93 0 0 -95 0
-95 -455 0 -455 0 0 95 0 95 93 0 c68 0 99 4 115 16 l22 15 0 741 0 740 -117
-4 c-206 -8 -237 -41 -256 -273 l-10 -135 -54 0 -53 0 0 298 c0 164 3 302 7
305 3 4 340 7 749 7 l742 0 6 -127z"/>
<path d="M3048 2243 c-2 -423 -7 -776 -12 -785 -7 -16 -1 -18 69 -18 76 0 77
0 69 23 -4 12 -9 365 -11 785 l-4 762 -54 0 -55 0 -2 -767z"/>
</g>
</svg>
